<?xml version="1.0" encoding="UTF-8" standalone="no"?>
<!DOCTYPE svg PUBLIC "-//W3C//DTD SVG 1.1//EN" "http://www.w3.org/Graphics/SVG/1.1/DTD/svg11.dtd">
<svg width="100%" height="100%" viewBox="0 0 2364 6608" version="1.1" xmlns="http://www.w3.org/2000/svg" xmlns:xlink="http://www.w3.org/1999/xlink" xml:space="preserve" xmlns:serif="http://www.serif.com/" style="fill-rule:evenodd;clip-rule:evenodd;stroke-linecap:round;stroke-linejoin:round;stroke-miterlimit:1.5;">
    <rect id="Timeline" x="0" y="0" width="2363.52" height="6607.56" style="fill:none;"/>
    <clipPath id="_clip1">
        <rect x="0" y="0" width="2363.52" height="6607.56"/>
    </clipPath>
    <g clip-path="url(#_clip1)">
        <g id="Occupation">
            <rect id="FTE" x="472.441" y="5614.92" width="1606.3" height="992.645" style="fill:rgb(215,246,215);"/>
            <rect id="FTE1" serif:id="FTE" x="472.441" y="4150.87" width="1606.3" height="1464.05" style="fill:rgb(215,246,246);"/>
            <g transform="matrix(100,0,0,100,1332.7,4385.33)">
            </g>
            <text x="888.026px" y="4385.33px" style="font-family:'ArialMT', 'Arial';font-size:100px;fill:rgb(0,153,153);">Employed</text>
            <rect id="DPhil" x="472.441" y="2921.78" width="1606.3" height="1229.09" style="fill:rgb(220,220,250);"/>
            <g transform="matrix(100,0,0,100,1140.6,3129.51)">
            </g>
            <text x="901.632px" y="3129.51px" style="font-family:'ArialMT', 'Arial';font-size:100px;fill:rgb(0,0,230);">DPhil</text>
            <rect id="Research-Assistant" serif:id="Research Assistant" x="472.441" y="2283.99" width="1606.3" height="638.538" style="fill:rgb(250,220,250);"/>
            <g transform="matrix(1,0,0,1,-1240.28,1181.9)">
                <text x="2136.45px" y="1309.81px" style="font-family:'ArialMT', 'Arial';font-size:100px;fill:rgb(255,51,255);">Research</text>
                <g transform="matrix(100,0,0,100,2542.16,1413.08)">
                </g>
                <text x="2136.45px" y="1413.08px" style="font-family:'ArialMT', 'Arial';font-size:100px;fill:rgb(255,51,255);">Assistant</text>
            </g>
            <rect id="Undergraduate" x="472.441" y="702.05" width="1606.3" height="1583.42" style="fill:rgb(253,223,223);"/>
            <g transform="matrix(1,0,0,1,-882.623,-402.742)">
                <text x="1771.96px" y="1309.81px" style="font-family:'ArialMT', 'Arial';font-size:100px;fill:rgb(255,128,128);">Undergrad</text>
                <g transform="matrix(100,0,0,100,2172.06,1413.08)">
                </g>
                <text x="1771.96px" y="1413.08px" style="font-family:'ArialMT', 'Arial';font-size:100px;fill:rgb(255,128,128);">&amp; Master</text>
            </g>
        </g>
        <rect id="Parental-Leave" serif:id="Parental Leave" x="779.528" y="5261.11" width="1299.21" height="141.732" style="fill:white;"/>
        <clipPath id="_clip2">
            <rect x="779.528" y="5261.11" width="1299.21" height="141.732"/>
        </clipPath>
        <g clip-path="url(#_clip2)">
            <g id="Cross-hatch">
                <path d="M826.772,5257.79L779.528,5257.79L685.039,5399.53L732.283,5399.53L826.772,5257.79Z" style="fill:rgb(255,0,0);"/>
                <path d="M921.26,5257.79L874.016,5257.79L779.528,5399.53L826.772,5399.53L921.26,5257.79Z" style="fill:rgb(255,0,0);"/>
                <path d="M1015.75,5257.79L968.504,5257.79L874.016,5399.53L921.26,5399.53L1015.75,5257.79Z" style="fill:rgb(255,0,0);"/>
                <path d="M1110.24,5257.79L1062.99,5257.79L968.504,5399.53L1015.75,5399.53L1110.24,5257.79Z" style="fill:rgb(255,0,0);"/>
                <path d="M1204.72,5257.79L1157.48,5257.79L1062.99,5399.53L1110.24,5399.53L1204.72,5257.79Z" style="fill:rgb(255,0,0);"/>
                <path d="M1299.21,5257.79L1251.97,5257.79L1157.48,5399.53L1204.72,5399.53L1299.21,5257.79Z" style="fill:rgb(255,0,0);"/>
                <path d="M1393.7,5257.79L1346.46,5257.79L1251.97,5399.53L1299.21,5399.53L1393.7,5257.79Z" style="fill:rgb(255,0,0);"/>
                <path d="M1488.19,5257.79L1440.94,5257.79L1346.46,5399.53L1393.7,5399.53L1488.19,5257.79Z" style="fill:rgb(255,0,0);"/>
                <path d="M1582.68,5257.79L1535.43,5257.79L1440.94,5399.53L1488.19,5399.53L1582.68,5257.79Z" style="fill:rgb(255,0,0);"/>
                <path d="M1677.16,5257.79L1629.92,5257.79L1535.43,5399.53L1582.68,5399.53L1677.16,5257.79Z" style="fill:rgb(255,0,0);"/>
                <path d="M1771.65,5257.79L1724.41,5257.79L1629.92,5399.53L1677.16,5399.53L1771.65,5257.79Z" style="fill:rgb(255,0,0);"/>
                <path d="M1866.14,5257.79L1818.9,5257.79L1724.41,5399.53L1771.65,5399.53L1866.14,5257.79Z" style="fill:rgb(255,0,0);"/>
                <path d="M1960.63,5257.79L1913.39,5257.79L1818.9,5399.53L1866.14,5399.53L1960.63,5257.79Z" style="fill:rgb(255,0,0);"/>
                <path d="M2055.12,5257.79L2007.87,5257.79L1913.39,5399.53L1960.63,5399.53L2055.12,5257.79Z" style="fill:rgb(255,0,0);"/>
                <path d="M2149.61,5257.79L2102.36,5257.79L2007.87,5399.53L2055.12,5399.53L2149.61,5257.79Z" style="fill:rgb(255,0,0);"/>
            </g>
            <g transform="matrix(100,0,0,100,1606.02,5364.45)">
            </g>
            <text x="900.064px" y="5364.45px" style="font-family:'Arial-BoldMT', 'Arial';font-weight:700;font-size:100px;">Parental Leave</text>
        </g>
        <g id="Affiliation">
            <rect id="UPC" x="1417.32" y="725.672" width="257.695" height="1110.24" style="fill:white;fill-opacity:0.85;"/>
            <g transform="matrix(4.90332e-17,-1,1,7.64665e-17,-5379.22,1599.69)">
                <g transform="matrix(100,0,0,100,424.464,6961.18)">
                </g>
                <text x="213.331px" y="6961.18px" style="font-family:'Arial-BoldMT', 'Arial';font-weight:700;font-size:100px;fill:rgb(255,128,128);">UPC</text>
            </g>
            <rect x="1417.32" y="725.672" width="257.695" height="1110.24" style="fill:none;stroke:white;stroke-width:2.08px;"/>
            <rect id="ParisTech" x="1417.32" y="1883.15" width="257.695" height="377.953" style="fill:white;fill-opacity:0.85;"/>
            <g transform="matrix(1.44035e-16,-1,1,2.60311e-17,-1890.76,3914.65)">
                <text x="1690.38px" y="3424.05px" style="font-family:'Arial-BoldMT', 'Arial';font-weight:700;font-size:75px;fill:rgb(255,128,128);">Télécom</text>
                <g transform="matrix(75,0,0,75,2019,3501.5)">
                </g>
                <text x="1666.04px" y="3501.5px" style="font-family:'Arial-BoldMT', 'Arial';font-weight:700;font-size:75px;fill:rgb(255,128,128);">ParisT<tspan x="1889.76px 1931.47px " y="3501.5px 3501.5px ">ec</tspan>h</text>
            </g>
            <rect x="1417.32" y="1883.15" width="257.695" height="377.953" style="fill:none;stroke:white;stroke-width:2.08px;"/>
            <rect id="UB" x="1726.56" y="1280.79" width="257.695" height="555.118" style="fill:white;fill-opacity:0.85;"/>
            <g transform="matrix(9.80665e-17,-1,1,3.82332e-17,-5069.98,1908.92)">
                <g transform="matrix(100,0,0,100,422.789,6961.18)">
                </g>
                <text x="278.356px" y="6961.18px" style="font-family:'Arial-BoldMT', 'Arial';font-weight:700;font-size:100px;fill:rgb(255,128,128);">UB</text>
            </g>
            <rect x="1726.56" y="1280.79" width="257.695" height="555.118" style="fill:none;stroke:white;stroke-width:2.08px;"/>
            <rect id="Oxford-University" serif:id="Oxford University" x="1417.32" y="2308.35" width="257.695" height="1818.9" style="fill:white;fill-opacity:0.85;"/>
            <g transform="matrix(1.17115e-17,-1,1,3.20147e-16,-7670.55,3891.03)">
                <g transform="matrix(100,0,0,100,1092.78,9252.52)">
                </g>
                <text x="253.673px" y="9252.52px" style="font-family:'Arial-BoldMT', 'Arial';font-weight:700;font-size:100px;fill:rgb(0,0,230);">Oxford University</text>
            </g>
            <rect x="1417.32" y="2308.35" width="257.695" height="1818.9" style="fill:none;stroke:white;stroke-width:2.08px;"/>
            <rect id="DeepMind--TVC-" serif:id="DeepMind (TVC)" x="1726.56" y="2424.95" width="257.695" height="1702.3" style="fill:white;fill-opacity:0.85;"/>
            <g transform="matrix(1.25137e-17,-1,1,2.99625e-16,-1580.53,5780.79)">
                <text x="1996.3px" y="3471.75px" style="font-family:'Arial-BoldMT', 'Arial';font-weight:700;font-size:100px;fill:rgb(255,51,255);">DeepMind</text>
                <g transform="matrix(100,0,0,100,3013.09,3471.75)">
                </g>
                <text x="2501.86px" y="3471.75px" style="font-family:'ArialMT', 'Arial';font-size:100px;fill:rgb(255,51,255);">(contractor)</text>
            </g>
            <rect x="1726.56" y="2424.95" width="257.695" height="1702.3" style="fill:none;stroke:white;stroke-width:2.08px;"/>
            <rect id="DeepMind--FTE-" serif:id="DeepMind (FTE)" x="1726.56" y="4175.97" width="257.695" height="2352.32" style="fill:white;fill-opacity:0.85;"/>
            <g transform="matrix(2.51695e-17,-1,1,3.92167e-16,-9762.36,6601.3)">
                <g transform="matrix(100,0,0,100,1674.17,11653.6)">
                </g>
                <text x="824.173px" y="11653.6px" style="font-family:'Arial-BoldMT', 'Arial';font-weight:700;font-size:100px;fill:rgb(0,153,153);">Google DeepMind</text>
            </g>
            <rect x="1726.56" y="4175.97" width="257.695" height="2352.32" style="fill:none;stroke:white;stroke-width:2.08px;"/>
        </g>
        <g id="Location">
            <rect id="Berlin" x="566.929" y="5662.65" width="212.598" height="608.867" style="fill-opacity:0.15;"/>
            <g transform="matrix(1.15884e-17,-1,1,2.01654e-16,-10665.2,5184.9)">
                <g transform="matrix(100,0,0,100,-654.349,11374.3)">
                </g>
                <text x="-910.013px" y="11374.3px" style="font-family:'ArialMT', 'Arial';font-size:100px;">Berlin</text>
            </g>
            <path id="London" d="M779.528,4292.6L566.929,3017.01L566.929,5568.54L779.528,5568.54L779.528,4292.6Z" style="fill-opacity:0.15;"/>
            <clipPath id="_clip3">
                <path d="M779.528,4292.6L566.929,3017.01L566.929,5568.54L779.528,5568.54L779.528,4292.6Z"/>
            </clipPath>
            <g clip-path="url(#_clip3)">
                <g transform="matrix(2.10466e-17,-1,1,1.29674e-16,-9962.24,4481.93)">
                    <g transform="matrix(100,0,0,100,-293.479,10671.3)">
                    </g>
                    <text x="-627.17px" y="10671.3px" style="font-family:'ArialMT', 'Arial';font-size:100px;">London</text>
                </g>
            </g>
            <path id="Oxford" d="M779.528,4087.88L566.929,2828.03L566.929,2308.35L779.528,2308.35L779.528,4087.88Z" style="fill-opacity:0.15;"/>
            <clipPath id="_clip4">
                <path d="M779.528,4087.88L566.929,2828.03L566.929,2308.35L779.528,2308.35L779.528,4087.88Z"/>
            </clipPath>
            <g clip-path="url(#_clip4)">
                <g transform="matrix(2.75546e-17,-1,1,1.36072e-16,-7316.22,1835.91)">
                    <g transform="matrix(100,0,0,100,-617.668,8025.27)">
                    </g>
                    <text x="-917.765px" y="8025.27px" style="font-family:'ArialMT', 'Arial';font-size:100px;">Oxford</text>
                </g>
            </g>
            <rect id="Paris" x="566.929" y="1883.15" width="212.598" height="377.953" style="fill-opacity:0.15;"/>
            <g transform="matrix(2.33448e-17,-1,1,1.27756e-16,-6654.81,1174.49)">
                <g transform="matrix(100,0,0,100,-783.722,7363.85)">
                </g>
                <text x="-1011.55px" y="7363.85px" style="font-family:'ArialMT', 'Arial';font-size:100px;">Paris</text>
            </g>
            <rect id="Barcelona" x="566.929" y="229.61" width="212.598" height="1606.3" style="fill-opacity:0.15;"/>
            <g transform="matrix(2.75546e-17,-1,1,1.36072e-16,-6253.23,772.917)">
                <g transform="matrix(100,0,0,100,-46.5071,6962.28)">
                </g>
                <text x="-496.8px" y="6962.28px" style="font-family:'ArialMT', 'Arial';font-size:100px;">Barcelona</text>
            </g>
        </g>
        <g id="Time-axis" serif:id="Time axis">
            <path d="M472.441,0L472.441,6607.56" style="fill:none;stroke:black;stroke-width:18.75px;"/>
            <g id="Ticks">
                <path d="M425.197,513.074L472.441,513.074" style="fill:none;stroke:black;stroke-width:18.75px;"/>
                <path d="M425.197,796.539L472.441,796.539" style="fill:none;stroke:black;stroke-width:18.75px;"/>
                <path d="M425.197,1080L472.441,1080" style="fill:none;stroke:black;stroke-width:18.75px;"/>
                <path d="M425.197,1363.47L472.441,1363.47" style="fill:none;stroke:black;stroke-width:18.75px;"/>
                <path d="M425.197,1646.93L472.441,1646.93" style="fill:none;stroke:black;stroke-width:18.75px;"/>
                <path d="M425.197,1930.4L472.441,1930.4" style="fill:none;stroke:black;stroke-width:18.75px;"/>
                <path d="M425.197,2213.86L472.441,2213.86" style="fill:none;stroke:black;stroke-width:18.75px;"/>
                <path d="M425.197,2497.33L472.441,2497.33" style="fill:none;stroke:black;stroke-width:18.75px;"/>
                <path d="M425.197,2780.79L472.441,2780.79" style="fill:none;stroke:black;stroke-width:18.75px;"/>
                <path d="M425.197,3064.26L472.441,3064.26" style="fill:none;stroke:black;stroke-width:18.75px;"/>
                <path d="M425.197,3347.72L472.441,3347.72" style="fill:none;stroke:black;stroke-width:18.75px;"/>
                <path d="M425.197,3631.18L472.441,3631.18" style="fill:none;stroke:black;stroke-width:18.75px;"/>
                <path d="M425.197,3914.65L472.441,3914.65" style="fill:none;stroke:black;stroke-width:18.75px;"/>
                <path d="M425.197,4198.11L472.441,4198.11" style="fill:none;stroke:black;stroke-width:18.75px;"/>
                <path d="M425.197,4481.58L472.441,4481.58" style="fill:none;stroke:black;stroke-width:18.75px;"/>
                <path d="M425.197,4765.04L472.441,4765.04" style="fill:none;stroke:black;stroke-width:18.75px;"/>
                <path d="M425.197,5048.51L472.441,5048.51" style="fill:none;stroke:black;stroke-width:18.75px;"/>
                <path d="M425.197,5331.97L472.441,5331.97" style="fill:none;stroke:black;stroke-width:18.75px;"/>
                <path d="M425.197,5615.44L472.441,5615.44" style="fill:none;stroke:black;stroke-width:18.75px;"/>
                <path d="M425.197,5898.9L472.441,5898.9" style="fill:none;stroke:black;stroke-width:18.75px;"/>
                <path d="M425.197,6182.36L472.441,6182.36" style="fill:none;stroke:black;stroke-width:18.75px;"/>
            </g>
            <g id="Labels">
                <g transform="matrix(1,0,0,1,0,9.79254e-06)">
                    <g transform="matrix(100,0,0,100,379.904,548.842)">
                    </g>
                    <text x="157.443px" y="548.842px" style="font-family:'ArialMT', 'Arial';font-size:100px;">2006</text>
                </g>
                <g transform="matrix(1,0,0,1,0,2.13918e-05)">
                    <g transform="matrix(100,0,0,100,379.918,832.292)">
                    </g>
                    <text x="157.457px" y="832.292px" style="font-family:'ArialMT', 'Arial';font-size:100px;">2007</text>
                </g>
                <g transform="matrix(1,0,0,1,7.10543e-15,3.298e-05)">
                    <g transform="matrix(100,0,0,100,380.203,1115.47)">
                    </g>
                    <text x="157.742px" y="1115.47px" style="font-family:'ArialMT', 'Arial';font-size:100px;">2008</text>
                </g>
                <g transform="matrix(1,0,0,1,7.10543e-15,4.45706e-05)">
                    <g transform="matrix(100,0,0,100,380.431,1398.71)">
                    </g>
                    <text x="157.97px" y="1398.71px" style="font-family:'ArialMT', 'Arial';font-size:100px;">2009</text>
                </g>
                <g transform="matrix(1,0,0,1,7.10543e-15,5.61798e-05)">
                    <g transform="matrix(100,0,0,100,380.203,1682.4)">
                    </g>
                    <text x="157.742px" y="1682.4px" style="font-family:'ArialMT', 'Arial';font-size:100px;">2010</text>
                </g>
                <g transform="matrix(1,0,0,1,7.10543e-15,6.76101e-05)">
                    <g transform="matrix(100,0,0,100,384.347,1961.72)">
                    </g>
                    <text x="169.308px" y="1961.72px" style="font-family:'ArialMT', 'Arial';font-size:100px;">201<tspan x="328.732px " y="1961.72px ">1</tspan></text>
                </g>
                <g transform="matrix(1,0,0,1,0,7.9397e-05)">
                    <g transform="matrix(100,0,0,100,379.776,2249.76)">
                    </g>
                    <text x="157.315px" y="2249.76px" style="font-family:'ArialMT', 'Arial';font-size:100px;">2012</text>
                </g>
                <g transform="matrix(1,0,0,1,7.10543e-15,9.09718e-05)">
                    <g transform="matrix(100,0,0,100,380.388,2532.61)">
                    </g>
                    <text x="157.927px" y="2532.61px" style="font-family:'ArialMT', 'Arial';font-size:100px;">2013</text>
                </g>
                <g transform="matrix(1,0,0,1,7.10543e-15,0.000102611)">
                    <g transform="matrix(100,0,0,100,379.434,2817.03)">
                    </g>
                    <text x="156.973px" y="2817.03px" style="font-family:'ArialMT', 'Arial';font-size:100px;">2014</text>
                </g>
                <g transform="matrix(1,0,0,1,7.10543e-15,0.000114193)">
                    <g transform="matrix(100,0,0,100,379.861,3100.07)">
                    </g>
                    <text x="157.4px" y="3100.07px" style="font-family:'ArialMT', 'Arial';font-size:100px;">2015</text>
                </g>
                <g transform="matrix(1,0,0,1,0,0.000125791)">
                    <g transform="matrix(100,0,0,100,379.904,3383.49)">
                    </g>
                    <text x="157.443px" y="3383.49px" style="font-family:'ArialMT', 'Arial';font-size:100px;">2016</text>
                </g>
                <g transform="matrix(1,0,0,1,0,0.000137391)">
                    <g transform="matrix(100,0,0,100,379.918,3666.94)">
                    </g>
                    <text x="157.457px" y="3666.94px" style="font-family:'ArialMT', 'Arial';font-size:100px;">2017</text>
                </g>
                <g transform="matrix(1,0,0,1,7.10543e-15,0.000148979)">
                    <g transform="matrix(100,0,0,100,380.203,3950.12)">
                    </g>
                    <text x="157.742px" y="3950.12px" style="font-family:'ArialMT', 'Arial';font-size:100px;">2018</text>
                </g>
                <g transform="matrix(1,8.49437e-18,1.39187e-17,1,-4.9738e-14,0.000160569)">
                    <g transform="matrix(100,0,0,100,380.431,4233.35)">
                    </g>
                    <text x="157.97px" y="4233.35px" style="font-family:'ArialMT', 'Arial';font-size:100px;">2019</text>
                </g>
                <g transform="matrix(1,0,0,1,7.10543e-15,0.000172178)">
                    <g transform="matrix(100,0,0,100,380.203,4517.05)">
                    </g>
                    <text x="157.742px" y="4517.05px" style="font-family:'ArialMT', 'Arial';font-size:100px;">2020</text>
                </g>
                <g transform="matrix(1,0,0,1,7.10543e-15,0.000183609)">
                    <g transform="matrix(100,0,0,100,384.347,4796.37)">
                    </g>
                    <text x="161.886px" y="4796.37px" style="font-family:'ArialMT', 'Arial';font-size:100px;">2021</text>
                </g>
                <g transform="matrix(1,0,0,1,0,0.000195396)">
                    <g transform="matrix(100,0,0,100,379.776,5084.4)">
                    </g>
                    <text x="157.315px" y="5084.4px" style="font-family:'ArialMT', 'Arial';font-size:100px;">2022</text>
                </g>
                <g transform="matrix(1,0,0,1,7.10543e-15,0.00020697)">
                    <g transform="matrix(100,0,0,100,380.388,5367.26)">
                    </g>
                    <text x="157.927px" y="5367.26px" style="font-family:'ArialMT', 'Arial';font-size:100px;">2023</text>
                </g>
                <g transform="matrix(1,0,0,1,7.10543e-15,0.000218571)">
                    <g transform="matrix(100,0,0,100,386.712,5650.74)">
                    </g>
                    <text x="164.251px" y="5650.74px" style="font-family:'ArialMT', 'Arial';font-size:100px;">2024</text>
                </g>
                <g transform="matrix(1,0,0,1,7.10543e-15,0.000230172)">
                    <g transform="matrix(100,0,0,100,386.712,5934.23)">
                    </g>
                    <text x="164.251px" y="5934.23px" style="font-family:'ArialMT', 'Arial';font-size:100px;">2025</text>
                </g>
                <g transform="matrix(1,0,0,1,7.10543e-15,0.000241772)">
                    <g transform="matrix(100,0,0,100,386.712,6217.69)">
                    </g>
                    <text x="164.251px" y="6217.69px" style="font-family:'ArialMT', 'Arial';font-size:100px;">2026</text>
                </g>
            </g>
        </g>
        <g id="gradient-banners" serif:id="gradient banners">
            <rect id="bottom" x="1.318" y="5898.9" width="2362.2" height="708.661" style="fill:url(#_Linear5);"/>
            <rect id="top" x="0" y="0" width="2267.72" height="708.661" style="fill:url(#_Linear6);"/>
        </g>
    </g>
    <defs>
        <linearGradient id="_Linear5" x1="0" y1="0" x2="1" y2="0" gradientUnits="userSpaceOnUse" gradientTransform="matrix(4.84981e-14,-708.661,-208.43,-2.55253e-14,1182.42,6607.56)"><stop offset="0" style="stop-color:white;stop-opacity:1"/><stop offset="0.5" style="stop-color:white;stop-opacity:1"/><stop offset="1" style="stop-color:white;stop-opacity:0"/></linearGradient>
        <linearGradient id="_Linear6" x1="0" y1="0" x2="1" y2="0" gradientUnits="userSpaceOnUse" gradientTransform="matrix(1.22521e-14,708.661,-200.093,4.3393e-14,1133.86,1.03029e-12)"><stop offset="0" style="stop-color:white;stop-opacity:1"/><stop offset="0.5" style="stop-color:white;stop-opacity:1"/><stop offset="1" style="stop-color:white;stop-opacity:0"/></linearGradient>
    </defs>
</svg>
